<svg xmlns="http://www.w3.org/2000/svg" xmlns:xlink="http://www.w3.org/1999/xlink" viewBox="0 0 447.05 467"><defs><style>.cls-1{fill:none;}.cls-2{isolation:isolate;}.cls-3{fill:url(#linear-gradient);}.cls-4{fill:#121117;}.cls-5{clip-path:url(#clip-path);}.cls-6{fill:#fff100;}.cls-7{fill:#231f20;}.cls-8{fill:#100f14;}.cls-9{fill:#808081;}.cls-13,.cls-9{mix-blend-mode:multiply;}.cls-10{fill:#ffcb2e;}.cls-11{fill:#f5ba18;}.cls-12{fill:#ec1c24;}.cls-13{fill:#e3e3e2;opacity:0.62;}.cls-14{fill:#999;}.cls-15{fill:#cbcac9;}.cls-16{fill:#f0efef;}.cls-17{fill:#fff;}</style><linearGradient id="linear-gradient" x1="164.1" y1="401.28" x2="314.36" y2="107.01" gradientUnits="userSpaceOnUse"><stop offset="0" stop-color="#1a2980"/><stop offset="0.29" stop-color="#1e5d98"/><stop offset="0.78" stop-color="#24afbf"/><stop offset="1" stop-color="#26d0ce"/></linearGradient><clipPath id="clip-path"><path id="SVGID" class="cls-1" d="M154.18,41.84,178.37,74.7a6.44,6.44,0,0,1,1.11,5.2c-1.64,7.55-11,30-42.86,52.14-31,21.53-52.57,20.17-57.69,17.73a6.33,6.33,0,0,1-2.42-2.06L52.23,113.63Z"/></clipPath></defs><title>Asset 1</title><g class="cls-2"><g id="Layer_2" data-name="Layer 2"><g id="Layer_1-2" data-name="Layer 1"><path class="cls-3" d="M144.54,89.74h10.81a9.18,9.18,0,0,1,9.18,9.18V448.44a9.18,9.18,0,0,1-9.18,9.18h-41a1.16,1.16,0,0,1-1.16-1.16V121.11A31.38,31.38,0,0,1,144.54,89.74Zm-1,358.7a38.64,38.64,0,0,1,38.64-38.64h61.05q39.21,0,57.18-14.93t18-42v-.76q0-18.72-6.45-32.13a44.65,44.65,0,0,0-20.37-20.62q-13.92-7.22-35.67-7.21H146.68a3.15,3.15,0,0,1-3.15-3.15h0a43.41,43.41,0,0,1,43.4-43.41h68.94q28.59,0,43.14-13.41t14.55-39.72q0-27.57-16.2-41.24t-48.58-13.66H143.53V98.92a9.18,9.18,0,0,1,9.18-9.18H258.14q35.69,0,59.72,12.14t35.92,34.41q11.89,22.28,11.9,53.14A86.78,86.78,0,0,1,358.34,225,73.4,73.4,0,0,1,336,253.31h0c-10.26,8-9.83,23.32.53,31.16l.61.47a82.53,82.53,0,0,1,24.79,31.25,95.83,95.83,0,0,1,8.6,40.48v.76q0,29.85-13.15,52.62t-37.7,35.17q-24.56,12.4-57.18,12.4H152.71a9.18,9.18,0,0,1-9.18-9.18Z"/><path class="cls-4" d="M154.18,41.84,178.37,74.7a6.44,6.44,0,0,1,1.11,5.2c-1.64,7.55-11,30-42.86,52.14-31,21.53-52.57,20.17-57.69,17.73a6.33,6.33,0,0,1-2.42-2.06L52.23,113.63Z"/><g class="cls-5"><polygon points="156.83 45.41 100.78 154.31 78.46 168.82 40.39 114.02 151.07 37.12 156.83 45.41"/></g><polygon class="cls-6" points="190.07 0 191.56 2.99 108.59 100.67 2.19 134.54 0 132.28 190.07 0"/><polygon class="cls-7" points="190.07 0 86.02 39.68 0 132.28 106.09 97.89 190.07 0"/><ellipse class="cls-8" cx="94.3" cy="63.98" rx="13.2" ry="4.95" transform="translate(-19.65 65.25) rotate(-34.79)"/><path class="cls-9" d="M85.08,144.48h0a1,1,0,0,0,.25-1.4L62.17,109.73a5.29,5.29,0,0,1,.42-6.6l30-33a1,1,0,0,0-.07-1.42h0a1,1,0,0,0-1.43.07l-30,33a7.3,7.3,0,0,0-.59,9.11l23.17,33.35A1,1,0,0,0,85.08,144.48Z"/><path class="cls-10" d="M81.16,142h0l.06,0,.06-.05h0c1-.52,8.36-3.58,16.1,9.39l4.88,9.43s-.6,2-4.78,4.63c-3.91,3-6,2.86-6,2.86l-7.13-7.86C74.88,148.59,80.3,142.81,81.16,142Z"/><path class="cls-10" d="M83.11,144.39h0a1,1,0,0,0,.26-1.4L60.19,109.64a5.29,5.29,0,0,1,.43-6.6l27.9-30.83a1,1,0,0,0-.07-1.43h0a1,1,0,0,0-1.42.07L59.12,101.68a7.31,7.31,0,0,0-.58,9.11l23.17,33.35A1,1,0,0,0,83.11,144.39Z"/><path class="cls-11" d="M76.24,142.39c1.92,2.75,5.06,3.88,7,2.52s2-4.7.09-7.46-5.06-3.88-7-2.52S74.33,139.63,76.24,142.39Z"/><path class="cls-12" d="M390.71,416s9.9,13.6,32,15.36c0,0-5.69,3.37-15.09,1.85,0,0,.27,6.42,7.12,10.53,0,0-29,2.45-42.69-23.51Z"/><path class="cls-13" d="M405.25,426.91l-16.38,10.77S381,433.31,377.2,428l17.22-8.07S400.22,424.8,405.25,426.91Z"/><path class="cls-14" d="M443.89,378c-5.56-7.66-14.86-10.39-20.77-6.1L307.35,437l19.13,28.83,112.62-67a9.93,9.93,0,0,0,2.11-1.17C447.11,393.38,449.46,385.65,443.89,378Z"/><path class="cls-15" d="M328.12,443.12c5.56,7.66,5.28,17.35-.62,21.64s-13.65.91-19.22-6.75-5.2-17.75-.28-21.43C313.85,432.21,322.55,435.46,328.12,443.12Z"/><path class="cls-16" d="M317,444.87l8.78-4.6,3.65,3.92,4.93-1.64,2.54,8.8-6.18,9.55s.86-11.84-7.9-15.41Z"/><path class="cls-13" d="M324.71,440.84l-6.29,3.29a11.55,11.55,0,0,1,10.89,6.41l116.88-68.32a16.26,16.26,0,0,0-2.3-4.23L330.1,443.94Z"/><path class="cls-17" d="M322.53,467c-8.45.38-15.41-7-17.95-14.59-2.28-6.78-1-12.84,3.42-15.81,9.4-6.36,19.76,4.43,22.1,7.36l113.17-66.77a14.4,14.4,0,0,1,1.1,1.51L329.62,446.41l-.5-.7a60.53,60.53,0,0,0-7-6.16c-4.83-3.54-9.22-4-13-1.43-4.38,3-4.27,9-2.7,13.68,2.33,6.93,8.63,13.71,16.18,13.33,0,0,4.22-.47,6.21-3.48,1.24-1.88,1.4-4.4.45-7.48a20,20,0,0,0-1.18-3.06l-8.41,4.34-.46-.35c-3.13-2.33-3.82-4.66-3.85-6.2a5.14,5.14,0,0,1,1.74-4,5,5,0,0,1,2.63-1.08c2.42-.26,8.36.2,11.3,9.84,1.12,3.64.89,6.69-.68,9.05-2.49,3.74-7.4,4.28-7.61,4.3Zm-2.25-21.38-.44,0a3,3,0,0,0-1.64.67,3.25,3.25,0,0,0-1.07,2.55c0,1.49.95,3,2.65,4.4l7.3-3.76C324.86,446.11,322.14,445.52,320.28,445.6Z"/><path class="cls-12" d="M364.83,404.58s12.37-4.75,20.08,9.69c0,0,5.72,10.25-3.44,19l20.27-12.14s6-10.21-.06-19c-4.56-6.62-11.48-9.79-20.72-6.46Z"/></g></g></g></svg>